<svg xmlns="http://www.w3.org/2000/svg" viewBox="0 0 708.661 102.047">
	<g id="icon">
		<g>
			<path fill="#982F36" d="M53.875,45.323c3.788,0,6.612-1.152,8.472-3.455c1.859-2.304,2.79-6.355,2.79-12.157v-8.292
				c0-6.586,1.51-11.416,4.53-14.487c3.02-3.071,7.891-4.607,14.614-4.607h4.607V14.61h-0.614c-4.607,0-7.414,0.589-8.42,1.766
				s-1.509,4.458-1.509,9.846c0,6.889-0.513,12.099-1.536,15.628c-1.024,3.53-3.499,6.675-7.423,9.436
				c3.924,2.731,6.398,5.866,7.423,9.399c1.023,3.535,1.536,8.752,1.536,15.648c0,5.396,0.503,8.684,1.509,9.861
				c1.006,1.177,3.813,1.767,8.42,1.767h0.614v12.285h-4.607c-6.723,0-11.594-1.536-14.614-4.606c-3.02-3.072-4.53-7.9-4.53-14.486
				v-8.241c0-5.835-0.931-9.896-2.79-12.183c-1.86-2.285-4.684-3.446-8.472-3.48V45.323z"/>
			<path fill="#982F36" d="M36.788,57.25c-3.788,0.034-6.603,1.195-8.446,3.48c-1.843,2.287-2.764,6.348-2.764,12.183v8.241
				c0,6.586-1.51,11.414-4.53,14.486c-3.021,3.07-7.909,4.606-14.666,4.606H1.775V87.963h0.614c4.641,0,7.465-0.59,8.472-1.768
				c1.006-1.178,1.51-4.465,1.51-9.86c0-6.897,0.512-12.114,1.536-15.647c1.023-3.535,3.48-6.668,7.371-9.4
				c-3.891-2.761-6.348-5.906-7.371-9.436c-1.024-3.53-1.536-8.739-1.536-15.628c0-5.388-0.504-8.669-1.51-9.846
				C9.854,15.199,7.03,14.61,2.389,14.61H1.775V2.325h4.607c6.757,0,11.645,1.536,14.666,4.607c3.02,3.071,4.53,7.9,4.53,14.487
				v8.292c0,5.802,0.921,9.853,2.764,12.157c1.843,2.303,4.658,3.455,8.446,3.455V57.25z"/>
		</g>
	</g>
	<g id="text">
		<g>
			<path fill="#982F36" d="M141.891,18.19v44.962c0,6.731-0.069,11.061-0.208,12.985c-0.139,1.926-0.772,3.664-1.898,5.215
				c-1.126,1.552-2.651,2.625-4.575,3.221c-1.925,0.596-4.824,0.894-8.699,0.894h-8.762v-11.76c1.052,0.083,1.814,0.125,2.286,0.125
				c1.247,0,2.229-0.305,2.95-0.915c0.72-0.608,1.136-1.356,1.247-2.243c0.11-0.887,0.166-2.604,0.166-5.153V18.19H141.891z"/>
			<path fill="#982F36" d="M166.159,18.19v67.276h-17.494V18.19H166.159z"/>
			<path fill="#982F36" d="M173.182,18.19h12.383c8.255,0,13.844,0.318,16.767,0.955c2.922,0.638,5.305,2.265,7.147,4.883
				c1.842,2.618,2.763,6.794,2.763,12.529c0,5.235-0.651,8.754-1.953,10.555c-1.302,1.801-3.865,2.881-7.688,3.241
				c3.462,0.858,5.79,2.009,6.981,3.449c1.191,1.44,1.933,2.763,2.223,3.968c0.291,1.205,0.437,4.523,0.437,9.952v17.744h-16.248
				V63.11c0-3.601-0.285-5.831-0.852-6.69c-0.568-0.858-2.057-1.288-4.467-1.288v30.335h-17.494V18.19z M190.676,29.701V44.66
				c1.967,0,3.345-0.27,4.135-0.811c0.79-0.54,1.185-2.292,1.185-5.256v-3.698c0-2.134-0.381-3.532-1.143-4.197
				C194.09,30.033,192.698,29.701,190.676,29.701z"/>
			<path fill="#982F36" d="M249.257,18.19l10.004,67.276h-17.878l-0.939-12.093h-6.258l-1.052,12.093h-18.087l8.924-67.276H249.257z
				 M239.985,61.448c-0.886-7.62-1.774-17.038-2.665-28.257c-1.782,12.883-2.902,22.302-3.357,28.257H239.985z"/>
			<path fill="#982F36" d="M277.233,18.19h17.619c4.765,0,8.429,0.374,10.991,1.122s4.488,1.828,5.776,3.241
				c1.288,1.412,2.161,3.123,2.618,5.132s0.686,5.118,0.686,9.329v5.858c0,4.295-0.443,7.425-1.33,9.392
				c-0.887,1.968-2.514,3.478-4.883,4.529c-2.368,1.054-5.464,1.579-9.287,1.579h-4.695v27.094h-17.495V18.19z M294.729,29.701v17.12
				c0.498,0.027,0.928,0.041,1.288,0.041c1.606,0,2.722-0.395,3.345-1.184c0.623-0.79,0.936-2.432,0.936-4.925v-5.526
				c0-2.299-0.36-3.795-1.081-4.488C298.495,30.048,296.999,29.701,294.729,29.701z"/>
			<path fill="#982F36" d="M334.454,51.683h-15.749v-3.698c0-4.266,0.491-7.556,1.475-9.869c0.983-2.312,2.957-4.355,5.922-6.129
				c2.964-1.772,6.814-2.659,11.552-2.659c5.679,0,9.959,1.004,12.841,3.013c2.881,2.009,4.612,4.474,5.194,7.396
				s0.873,8.941,0.873,18.056v27.675H340.23v-4.914c-1.025,1.971-2.349,3.448-3.969,4.434c-1.621,0.985-3.553,1.478-5.797,1.478
				c-2.937,0-5.631-0.824-8.082-2.473c-2.452-1.647-3.678-5.256-3.678-10.824v-4.529c0-4.128,0.65-6.94,1.953-8.436
				c1.302-1.496,4.529-3.241,9.682-5.236c5.513-2.161,8.463-3.615,8.852-4.363c0.388-0.748,0.582-2.271,0.582-4.571
				c0-2.881-0.216-4.758-0.645-5.63c-0.43-0.873-1.143-1.31-2.14-1.31c-1.137,0-1.843,0.368-2.12,1.102
				c-0.276,0.734-0.415,2.639-0.415,5.714V51.683z M339.773,59.246c-2.688,1.967-4.246,3.615-4.676,4.945
				c-0.43,1.329-0.644,3.241-0.644,5.734c0,2.854,0.187,4.695,0.561,5.526s1.115,1.247,2.224,1.247c1.053,0,1.738-0.326,2.057-0.977
				c0.318-0.651,0.479-2.362,0.479-5.133V59.246z"/>
			<path fill="#982F36" d="M379.417,30.324l-0.291,5.08c1.219-2.026,2.707-3.545,4.467-4.559c1.76-1.013,3.789-1.519,6.088-1.519
				c2.881,0,5.236,0.679,7.064,2.036s3.006,3.068,3.531,5.132c0.527,2.063,0.791,5.506,0.791,10.326v38.646h-16.789V47.278
				c0-3.795-0.125-6.108-0.373-6.939c-0.25-0.831-0.943-1.247-2.078-1.247c-1.191,0-1.939,0.479-2.244,1.434
				c-0.305,0.956-0.457,3.512-0.457,7.667v37.274h-16.787V30.324H379.417z"/>
			<path fill="#982F36" d="M444.866,58.872h-21.734v11.926c0,2.493,0.18,4.101,0.541,4.82c0.359,0.721,1.053,1.081,2.078,1.081
				c1.273,0,2.125-0.479,2.555-1.434c0.43-0.956,0.645-2.806,0.645-5.548v-7.272h15.916v4.072c0,3.408-0.215,6.025-0.645,7.854
				c-0.43,1.828-1.434,3.781-3.014,5.858c-1.578,2.078-3.58,3.637-6.004,4.676c-2.424,1.038-5.465,1.558-9.121,1.558
				c-3.547,0-6.678-0.513-9.393-1.537s-4.826-2.431-6.336-4.218s-2.557-3.754-3.137-5.901c-0.582-2.146-0.873-5.27-0.873-9.37V49.356
				c0-4.82,0.65-8.623,1.953-11.407c1.301-2.784,3.434-4.917,6.398-6.399c2.965-1.481,6.371-2.223,10.223-2.223
				c4.709,0,8.596,0.893,11.656,2.68s5.207,4.155,6.441,7.106c1.232,2.95,1.85,7.099,1.85,12.445V58.872z M428.036,49.896v-4.031
				c0-2.853-0.152-4.695-0.457-5.526s-0.93-1.247-1.871-1.247c-1.162,0-1.883,0.354-2.16,1.06c-0.277,0.707-0.416,2.611-0.416,5.714
				v4.031H428.036z"/>
			<path fill="#982F36" d="M467.635,18.19v67.276H450.35V18.19H467.635z"/>
			<path fill="#982F36" d="M543.141,18.19v67.276h-15.293l-0.02-45.419l-6.088,45.419h-10.846l-6.42-44.38l-0.021,44.38h-15.293
				V18.19h22.637c0.672,4.045,1.365,8.812,2.078,14.302l2.482,17.113l4.021-31.415H543.141z"/>
			<path fill="#982F36" d="M564.667,51.683h-15.75v-3.698c0-4.266,0.492-7.556,1.475-9.869c0.984-2.312,2.957-4.355,5.922-6.129
				c2.965-1.772,6.814-2.659,11.553-2.659c5.678,0,9.959,1.004,12.84,3.013s4.613,4.474,5.195,7.396s0.871,8.941,0.871,18.056v27.675
				h-16.33v-4.914c-1.025,1.971-2.348,3.448-3.969,4.434s-3.553,1.478-5.797,1.478c-2.936,0-5.631-0.824-8.082-2.473
				c-2.451-1.647-3.678-5.256-3.678-10.824v-4.529c0-4.128,0.65-6.94,1.953-8.436c1.303-1.496,4.529-3.241,9.682-5.236
				c5.514-2.161,8.463-3.615,8.852-4.363s0.582-2.271,0.582-4.571c0-2.881-0.215-4.758-0.645-5.63c-0.43-0.873-1.143-1.31-2.139-1.31
				c-1.137,0-1.844,0.368-2.121,1.102c-0.275,0.734-0.414,2.639-0.414,5.714V51.683z M569.985,59.246
				c-2.688,1.967-4.246,3.615-4.676,4.945c-0.43,1.329-0.643,3.241-0.643,5.734c0,2.854,0.186,4.695,0.561,5.526
				c0.373,0.831,1.115,1.247,2.223,1.247c1.053,0,1.738-0.326,2.057-0.977c0.318-0.651,0.479-2.362,0.479-5.133V59.246z"/>
			<path fill="#982F36" d="M628.702,30.324l-6.816,21.961l8.852,33.182h-16.145l-5.234-24.033l-0.021,24.033h-16.787V18.19h16.787
				l0.021,28.242l5.234-16.108H628.702z"/>
			<path fill="#982F36" d="M671.254,58.872H649.52v11.926c0,2.493,0.18,4.101,0.541,4.82c0.359,0.721,1.053,1.081,2.078,1.081
				c1.273,0,2.125-0.479,2.555-1.434c0.43-0.956,0.645-2.806,0.645-5.548v-7.272h15.916v4.072c0,3.408-0.215,6.025-0.645,7.854
				c-0.43,1.828-1.434,3.781-3.014,5.858c-1.578,2.078-3.58,3.637-6.004,4.676c-2.424,1.038-5.465,1.558-9.121,1.558
				c-3.547,0-6.678-0.513-9.393-1.537s-4.826-2.431-6.336-4.218s-2.557-3.754-3.137-5.901c-0.582-2.146-0.873-5.27-0.873-9.37V49.356
				c0-4.82,0.65-8.623,1.953-11.407c1.301-2.784,3.434-4.917,6.398-6.399c2.965-1.481,6.371-2.223,10.223-2.223
				c4.709,0,8.596,0.893,11.656,2.68s5.207,4.155,6.441,7.106c1.232,2.95,1.85,7.099,1.85,12.445V58.872z M654.424,49.896v-4.031
				c0-2.853-0.152-4.695-0.457-5.526s-0.93-1.247-1.871-1.247c-1.162,0-1.883,0.354-2.16,1.06c-0.277,0.707-0.416,2.611-0.416,5.714
				v4.031H654.424z"/>
			<path fill="#982F36" d="M693.526,30.324l-0.664,7.251c2.438-5.193,5.969-7.942,10.596-8.248v19.405
				c-3.074,0-5.334,0.416-6.773,1.247c-1.441,0.831-2.326,1.988-2.66,3.47c-0.332,1.482-0.498,4.896-0.498,10.243v21.774h-16.787
				V30.324H693.526z"/>
		</g>
	</g>
</svg>
